<?xml version="1.0" encoding="UTF-8"?>
<!DOCTYPE svg PUBLIC "-//W3C//DTD SVG 1.1//EN" "http://www.w3.org/Graphics/SVG/1.1/DTD/svg11.dtd">
<svg xmlns="http://www.w3.org/2000/svg" version="1.1" width="500px" height="500px" style="shape-rendering:geometricPrecision; text-rendering:geometricPrecision; image-rendering:optimizeQuality; fill-rule:evenodd; clip-rule:evenodd" xmlns:xlink="http://www.w3.org/1999/xlink">
<g><path style="opacity:0.263" fill="#cee09e" d="M 462.5,149.5 C 462.833,150.167 463.167,150.833 463.5,151.5C 462.167,151.5 460.833,151.5 459.5,151.5C 458.167,151.5 456.833,151.5 455.5,151.5C 333.668,150.5 211.668,150.167 89.5,150.5C 191.85,149.828 294.35,149.161 397,148.5C 418.607,148.438 440.44,148.771 462.5,149.5 Z"/></g>
<g><path style="opacity:1" fill="#b6dd64" d="M 449.5,151.5 C 443.521,154.375 437.521,157.042 431.5,159.5C 428.298,161.178 424.965,162.678 421.5,164C 416.167,168 410.833,172 405.5,176C 404.335,177.992 403.002,179.825 401.5,181.5C 399.203,183.294 397.037,185.294 395,187.5C 392.79,192.032 389.956,196.032 386.5,199.5C 381.5,199.5 376.5,199.5 371.5,199.5C 253.167,199.5 134.833,199.5 16.5,199.5C 18.1779,197.113 19.5112,194.446 20.5,191.5C 24.2688,187.229 28.2688,183.062 32.5,179C 33.448,178.517 34.448,178.351 35.5,178.5C 35.4326,177.041 35.7659,175.708 36.5,174.5C 39.5762,171.448 42.9095,168.614 46.5,166C 52.3336,162.918 58.3336,160.084 64.5,157.5C 72.5208,154.619 80.8541,152.786 89.5,152C 209.5,151.5 329.5,151.333 449.5,151.5 Z"/></g>
<g><path style="opacity:0.867" fill="#b8d479" d="M 89.5,150.5 C 211.668,150.167 333.668,150.5 455.5,151.5C 453.5,151.5 451.5,151.5 449.5,151.5C 329.5,151.333 209.5,151.5 89.5,152C 80.8541,152.786 72.5208,154.619 64.5,157.5C 67.1667,156.167 69.8333,154.833 72.5,153.5C 77.8443,151.367 83.5109,150.367 89.5,150.5 Z"/></g>
<g><path style="opacity:1" fill="#daf79b" d="M 449.5,151.5 C 451.5,151.5 453.5,151.5 455.5,151.5C 456.833,151.5 458.167,151.5 459.5,151.5C 459.5,152.5 459.5,153.5 459.5,154.5C 450.167,156.763 440.833,158.43 431.5,159.5C 437.521,157.042 443.521,154.375 449.5,151.5 Z"/></g>
<g><path style="opacity:1" fill="#ddf3a4" d="M 459.5,151.5 C 460.833,151.5 462.167,151.5 463.5,151.5C 468.844,151.334 474.177,151.501 479.5,152C 494.009,158.525 499.343,169.691 495.5,185.5C 494.325,185.281 493.325,185.614 492.5,186.5C 490.957,189.086 489.291,191.586 487.5,194C 479.824,196.973 471.824,198.64 463.5,199C 458.072,200.753 452.739,202.586 447.5,204.5C 447.5,205.5 447.5,206.5 447.5,207.5C 447.167,207.5 446.833,207.5 446.5,207.5C 438.49,209.51 433.49,214.51 431.5,222.5C 430.357,222.908 429.357,223.575 428.5,224.5C 426.773,227.392 425.273,230.392 424,233.5C 422.558,242.793 422.224,252.126 423,261.5C 425.023,266.036 426.69,270.703 428,275.5C 431.913,279.038 435.08,283.038 437.5,287.5C 440.5,287.167 441.833,288.5 441.5,291.5C 443.199,291.34 444.866,291.506 446.5,292C 456.671,298.766 468.005,301.6 480.5,300.5C 480.833,300.5 481.167,300.5 481.5,300.5C 488.103,305.102 493.27,311.102 497,318.5C 497.499,322.486 497.666,326.486 497.5,330.5C 491.501,342.842 481.501,348.509 467.5,347.5C 468.568,346.566 469.901,346.232 471.5,346.5C 471.5,345.5 471.5,344.5 471.5,343.5C 474.247,343.813 476.914,343.48 479.5,342.5C 477.314,341.779 475.147,341.113 473,340.5C 470.333,340.5 467.667,340.5 465,340.5C 463.261,341.894 461.261,342.561 459,342.5C 453.05,342.133 446.55,341.633 439.5,341C 437.478,338.816 435.145,336.983 432.5,335.5C 430.902,336.485 429.235,336.651 427.5,336C 424.516,333.174 421.183,330.841 417.5,329C 416.663,327.989 416.33,326.822 416.5,325.5C 413.984,325.245 411.65,324.411 409.5,323C 407.274,320.398 404.608,318.565 401.5,317.5C 396.353,313.021 392.353,307.687 389.5,301.5C 388.072,298.054 387.239,294.387 387,290.5C 386.167,288.333 384.667,286.833 382.5,286C 382.833,285.667 383.167,285.333 383.5,285C 381.252,276.845 378.918,268.679 376.5,260.5C 377.134,252.813 377.8,245.146 378.5,237.5C 377.923,235.894 377.59,234.228 377.5,232.5C 378.88,226.889 379.88,221.223 380.5,215.5C 382.285,210.152 384.285,204.818 386.5,199.5C 389.956,196.032 392.79,192.032 395,187.5C 397.037,185.294 399.203,183.294 401.5,181.5C 403.199,181.66 404.866,181.494 406.5,181C 409.969,175.599 414.635,171.599 420.5,169C 423.222,164.637 427.222,162.304 432.5,162C 431.748,161.329 431.414,160.496 431.5,159.5C 440.833,158.43 450.167,156.763 459.5,154.5C 459.5,153.5 459.5,152.5 459.5,151.5 Z"/></g>
<g><path style="opacity:0.706" fill="#e2efb9" d="M 462.5,149.5 C 489.982,147.197 501.482,159.53 497,186.5C 493.603,191.617 489.103,195.45 483.5,198C 475.867,199.552 468.201,200.885 460.5,202C 455.91,203.297 451.577,205.13 447.5,207.5C 447.5,206.5 447.5,205.5 447.5,204.5C 452.739,202.586 458.072,200.753 463.5,199C 471.824,198.64 479.824,196.973 487.5,194C 489.291,191.586 490.957,189.086 492.5,186.5C 493.325,185.614 494.325,185.281 495.5,185.5C 499.343,169.691 494.009,158.525 479.5,152C 474.177,151.501 468.844,151.334 463.5,151.5C 463.167,150.833 462.833,150.167 462.5,149.5 Z"/></g>
<g><path style="opacity:0.38" fill="#d1e4a6" d="M 72.5,153.5 C 69.8333,154.833 67.1667,156.167 64.5,157.5C 58.3336,160.084 52.3336,162.918 46.5,166C 42.9095,168.614 39.5762,171.448 36.5,174.5C 29.7858,178.88 24.4524,184.547 20.5,191.5C 19.1667,192.5 17.8333,193.5 16.5,194.5C 29.7417,173.534 48.4084,159.868 72.5,153.5 Z"/></g>
<g><path style="opacity:1" fill="#daf699" d="M 431.5,159.5 C 431.414,160.496 431.748,161.329 432.5,162C 427.222,162.304 423.222,164.637 420.5,169C 414.635,171.599 409.969,175.599 406.5,181C 404.866,181.494 403.199,181.66 401.5,181.5C 403.002,179.825 404.335,177.992 405.5,176C 410.833,172 416.167,168 421.5,164C 424.965,162.678 428.298,161.178 431.5,159.5 Z"/></g>
<g><path style="opacity:0.918" fill="#b6d672" d="M 36.5,174.5 C 35.7659,175.708 35.4326,177.041 35.5,178.5C 34.448,178.351 33.448,178.517 32.5,179C 28.2688,183.062 24.2688,187.229 20.5,191.5C 24.4524,184.547 29.7858,178.88 36.5,174.5 Z"/></g>
<g><path style="opacity:0.922" fill="#c4da86" d="M 20.5,191.5 C 19.5112,194.446 18.1779,197.113 16.5,199.5C 16.1667,199.5 15.8333,199.5 15.5,199.5C 14.5,200.167 13.5,200.833 12.5,201.5C 13.0787,198.669 14.412,196.336 16.5,194.5C 17.8333,193.5 19.1667,192.5 20.5,191.5 Z"/></g>
<g><path style="opacity:1" fill="#a9cb54" d="M 15.5,199.5 C 15.1062,200.967 14.7728,202.467 14.5,204C 14.3875,205.662 15.0542,206.829 16.5,207.5C 18.1349,206.67 19.8016,206.503 21.5,207C 21.8333,206.667 22.1667,206.333 22.5,206C 21.5,205.667 20.5,205.333 19.5,205C 135.5,204.333 251.5,204.333 367.5,205C -85.8328,205.833 -85.8328,206.333 367.5,206.5C 368.167,229.167 368.833,229.167 369.5,206.5C 370.873,206.657 372.207,206.49 373.5,206C 372.833,205.667 372.167,205.333 371.5,205C 372.833,204.667 374.167,204.333 375.5,204C 374.692,203.692 374.025,203.192 373.5,202.5C 374.729,201.719 376.062,201.219 377.5,201C 375.292,200.809 373.292,200.309 371.5,199.5C 376.5,199.5 381.5,199.5 386.5,199.5C 384.285,204.818 382.285,210.152 380.5,215.5C 378.871,217.858 377.705,220.524 377,223.5C 375.519,229.419 374.686,235.419 374.5,241.5C 373.527,243.948 373.194,246.615 373.5,249.5C 249.833,249.5 126.167,249.5 2.5,249.5C 2.16667,249.5 1.83333,249.5 1.5,249.5C 1.5,246.167 1.5,242.833 1.5,239.5C 4.37149,231.837 6.37149,223.837 7.5,215.5C 7.5,214.167 7.5,212.833 7.5,211.5C 10.2011,208.765 11.8678,205.431 12.5,201.5C 13.5,200.833 14.5,200.167 15.5,199.5 Z"/></g>
<g><path style="opacity:1" fill="#a7cc54" d="M 15.5,199.5 C 15.8333,199.5 16.1667,199.5 16.5,199.5C 134.833,199.5 253.167,199.5 371.5,199.5C 373.292,200.309 375.292,200.809 377.5,201C 376.062,201.219 374.729,201.719 373.5,202.5C 374.025,203.192 374.692,203.692 375.5,204C 374.167,204.333 372.833,204.667 371.5,205C 372.167,205.333 372.833,205.667 373.5,206C 372.207,206.49 370.873,206.657 369.5,206.5C 368.833,229.167 368.167,229.167 367.5,206.5C -85.8328,206.333 -85.8328,205.833 367.5,205C 251.5,204.333 135.5,204.333 19.5,205C 20.5,205.333 21.5,205.667 22.5,206C 22.1667,206.333 21.8333,206.667 21.5,207C 19.8016,206.503 18.1349,206.67 16.5,207.5C 15.0542,206.829 14.3875,205.662 14.5,204C 14.7728,202.467 15.1062,200.967 15.5,199.5 Z"/></g>
<g><path style="opacity:0.541" fill="#cbdb9f" d="M 12.5,201.5 C 11.8678,205.431 10.2011,208.765 7.5,211.5C 8.13224,207.569 9.79891,204.235 12.5,201.5 Z"/></g>
<g><path style="opacity:0.357" fill="#cbdb9e" d="M 7.5,211.5 C 7.5,212.833 7.5,214.167 7.5,215.5C 5.30023,220.767 3.30023,226.1 1.5,231.5C 2.51783,224.454 4.51783,217.787 7.5,211.5 Z"/></g>
<g><path style="opacity:0.063" fill="#e5f2c4" d="M 446.5,207.5 C 441.281,212.264 436.281,217.264 431.5,222.5C 433.49,214.51 438.49,209.51 446.5,207.5 Z"/></g>
<g><path style="opacity:0.878" fill="#a6c165" d="M 7.5,215.5 C 6.37149,223.837 4.37149,231.837 1.5,239.5C 1.80155,236.941 1.46822,234.607 0.5,232.5C 0.5,231.833 0.833333,231.5 1.5,231.5C 3.30023,226.1 5.30023,220.767 7.5,215.5 Z"/></g>
<g><path style="opacity:0.369" fill="#c3da90" d="M 0.5,232.5 C 1.46822,234.607 1.80155,236.941 1.5,239.5C 1.5,242.833 1.5,246.167 1.5,249.5C 1.4425,256.931 2.27583,264.265 4,271.5C 6.92757,280.116 9.7609,288.783 12.5,297.5C 1.58859,277.266 -2.41141,255.599 0.5,232.5 Z"/></g>
<g><path style="opacity:1" fill="#dbf69c" d="M 380.5,215.5 C 379.88,221.223 378.88,226.889 377.5,232.5C 377.59,234.228 377.923,235.894 378.5,237.5C 377.8,245.146 377.134,252.813 376.5,260.5C 378.918,268.679 381.252,276.845 383.5,285C 383.167,285.333 382.833,285.667 382.5,286C 384.667,286.833 386.167,288.333 387,290.5C 387.239,294.387 388.072,298.054 389.5,301.5C 388.833,300.833 388.167,300.167 387.5,299.5C 377.526,281.59 373.193,262.257 374.5,241.5C 374.686,235.419 375.519,229.419 377,223.5C 377.705,220.524 378.871,217.858 380.5,215.5 Z"/></g>
<g><path style="opacity:0.937" fill="#e1eebc" d="M 431.5,222.5 C 419.12,248.663 423.787,271.163 445.5,290C 456.596,295.841 468.263,299.341 480.5,300.5C 468.005,301.6 456.671,298.766 446.5,292C 444.866,291.506 443.199,291.34 441.5,291.5C 441.833,288.5 440.5,287.167 437.5,287.5C 435.08,283.038 431.913,279.038 428,275.5C 426.69,270.703 425.023,266.036 423,261.5C 422.224,252.126 422.558,242.793 424,233.5C 425.273,230.392 426.773,227.392 428.5,224.5C 429.357,223.575 430.357,222.908 431.5,222.5 Z"/></g>
<g><path style="opacity:1" fill="#b5d963" d="M 374.5,241.5 C 373.193,262.257 377.526,281.59 387.5,299.5C 263.5,299.5 139.5,299.5 15.5,299.5C 15.0269,298.094 14.0269,297.427 12.5,297.5C 9.7609,288.783 6.92757,280.116 4,271.5C 2.27583,264.265 1.4425,256.931 1.5,249.5C 1.83333,249.5 2.16667,249.5 2.5,249.5C 2.07629,254.419 2.90962,259.086 5,263.5C 5.18584,261.1 5.68584,258.766 6.5,256.5C 8.09025,264.257 10.2569,271.924 13,279.5C 13.8165,282.56 13.3165,285.394 11.5,288C 12.237,290.799 13.0703,290.966 14,288.5C 14.3742,289.416 14.8742,290.25 15.5,291C 13.7174,292.067 13.2174,293.567 14,295.5C 15,296.833 16,296.833 17,295.5C 17.6914,297.891 18.6914,297.891 20,295.5C 20.7724,296.849 21.9391,297.682 23.5,298C 143.833,298.667 264.167,298.667 384.5,298C 383.61,295.419 381.943,294.086 379.5,294C 380.696,294.654 380.696,295.154 379.5,295.5C 378.808,294.975 378.308,294.308 378,293.5C 378.033,284.287 376.7,275.287 374,266.5C 373.501,260.843 373.334,255.176 373.5,249.5C 373.194,246.615 373.527,243.948 374.5,241.5 Z"/></g>
<g><path style="opacity:1" fill="#b6dd64" d="M 2.5,249.5 C 126.167,249.5 249.833,249.5 373.5,249.5C 373.334,255.176 373.501,260.843 374,266.5C 376.7,275.287 378.033,284.287 378,293.5C 378.308,294.308 378.808,294.975 379.5,295.5C 380.696,295.154 380.696,294.654 379.5,294C 381.943,294.086 383.61,295.419 384.5,298C 264.167,298.667 143.833,298.667 23.5,298C 21.9391,297.682 20.7724,296.849 20,295.5C 18.6914,297.891 17.6914,297.891 17,295.5C 16,296.833 15,296.833 14,295.5C 13.2174,293.567 13.7174,292.067 15.5,291C 14.8742,290.25 14.3742,289.416 14,288.5C 13.0703,290.966 12.237,290.799 11.5,288C 13.3165,285.394 13.8165,282.56 13,279.5C 10.2569,271.924 8.09025,264.257 6.5,256.5C 5.68584,258.766 5.18584,261.1 5,263.5C 2.90962,259.086 2.07629,254.419 2.5,249.5 Z"/></g>
<g><path style="opacity:0.22" fill="#cbdf9e" d="M 12.5,297.5 C 14.0269,297.427 15.0269,298.094 15.5,299.5C 16.6146,303.947 18.9479,307.613 22.5,310.5C 23.1098,311.391 23.4431,312.391 23.5,313.5C 18.3549,309.218 14.6882,303.885 12.5,297.5 Z"/></g>
<g><path style="opacity:1" fill="#a8cc54" d="M 15.5,299.5 C 139.5,299.5 263.5,299.5 387.5,299.5C 387.298,301.989 387.798,304.323 389,306.5C 392.472,311.969 396.638,316.802 401.5,321C 402.649,322.73 402.649,324.396 401.5,326C 406.016,327.494 410.349,329.494 414.5,332C 415.554,334.382 416.221,336.882 416.5,339.5C 357.417,339.008 298.417,339.508 239.5,341C 256.407,341.174 273.241,341.674 290,342.5C 333.148,341.548 377.814,341.215 424,341.5C 429.962,341.403 435.462,342.903 440.5,346C 439.944,346.383 439.611,346.883 439.5,347.5C 322.833,347.667 206.166,347.5 89.5,347C 84.964,345.621 80.2973,345.121 75.5,345.5C 74.1266,345.657 72.7932,345.49 71.5,345C 65.497,341.427 59.1636,338.927 52.5,337.5C 51.335,334.41 49.0017,333.076 45.5,333.5C 44.5,332.167 43.5,330.833 42.5,329.5C 39.1612,326.797 35.8278,324.13 32.5,321.5C 31.1667,320.833 30.1667,319.833 29.5,318.5C 28.2498,316.068 26.7498,313.734 25,311.5C 24.3292,310.748 23.4959,310.414 22.5,310.5C 18.9479,307.613 16.6146,303.947 15.5,299.5 Z"/></g>
<g><path style="opacity:0.845" fill="#e3efbf" d="M 481.5,300.5 C 491.383,303.715 497.383,310.381 499.5,320.5C 499.5,322.833 499.5,325.167 499.5,327.5C 498.833,328.5 498.167,329.5 497.5,330.5C 497.666,326.486 497.499,322.486 497,318.5C 493.27,311.102 488.103,305.102 481.5,300.5 Z"/></g>
<g><path style="opacity:0.659" fill="#a6bf64" d="M 22.5,310.5 C 23.4959,310.414 24.3292,310.748 25,311.5C 26.7498,313.734 28.2498,316.068 29.5,318.5C 27.7541,316.748 25.7541,315.415 23.5,314.5C 23.5,314.167 23.5,313.833 23.5,313.5C 23.4431,312.391 23.1098,311.391 22.5,310.5 Z"/></g>
<g><path style="opacity:0.063" fill="#d8e7ac" d="M 23.5,314.5 C 25.7541,315.415 27.7541,316.748 29.5,318.5C 30.1667,319.833 31.1667,320.833 32.5,321.5C 33.5,322.833 34.5,324.167 35.5,325.5C 30.8947,322.564 26.8947,318.898 23.5,314.5 Z"/></g>
<g><path style="opacity:0.922" fill="#afc66d" d="M 32.5,321.5 C 35.8278,324.13 39.1612,326.797 42.5,329.5C 41.8333,329.5 41.1667,329.5 40.5,329.5C 38.2512,328.92 36.5846,327.587 35.5,325.5C 34.5,324.167 33.5,322.833 32.5,321.5 Z"/></g>
<g><path style="opacity:0.259" fill="#d0e4a6" d="M 40.5,329.5 C 41.1667,329.5 41.8333,329.5 42.5,329.5C 43.5,330.833 44.5,332.167 45.5,333.5C 43.2512,332.92 41.5846,331.587 40.5,329.5 Z"/></g>
<g><path style="opacity:0.627" fill="#bdd288" d="M 45.5,333.5 C 49.0017,333.076 51.335,334.41 52.5,337.5C 49.6689,336.921 47.3356,335.588 45.5,333.5 Z"/></g>
<g><path style="opacity:0.776" fill="#bed28b" d="M 52.5,337.5 C 59.1636,338.927 65.497,341.427 71.5,345C 72.7932,345.49 74.1266,345.657 75.5,345.5C 75.5,345.833 75.5,346.167 75.5,346.5C 67.096,345.257 59.4293,342.257 52.5,337.5 Z"/></g>
<g><path style="opacity:1" fill="#a9ca58" d="M 387.5,299.5 C 388.167,300.167 388.833,300.833 389.5,301.5C 392.353,307.687 396.353,313.021 401.5,317.5C 413.975,331.41 429.308,340.743 447.5,345.5C 445.365,347.369 442.698,348.036 439.5,347.5C 439.611,346.883 439.944,346.383 440.5,346C 435.462,342.903 429.962,341.403 424,341.5C 377.814,341.215 333.148,341.548 290,342.5C 273.241,341.674 256.407,341.174 239.5,341C 298.417,339.508 357.417,339.008 416.5,339.5C 416.221,336.882 415.554,334.382 414.5,332C 410.349,329.494 406.016,327.494 401.5,326C 402.649,324.396 402.649,322.73 401.5,321C 396.638,316.802 392.472,311.969 389,306.5C 387.798,304.323 387.298,301.989 387.5,299.5 Z"/></g>
<g><path style="opacity:1" fill="#dcf59f" d="M 401.5,317.5 C 404.608,318.565 407.274,320.398 409.5,323C 411.65,324.411 413.984,325.245 416.5,325.5C 416.33,326.822 416.663,327.989 417.5,329C 421.183,330.841 424.516,333.174 427.5,336C 429.235,336.651 430.902,336.485 432.5,335.5C 435.145,336.983 437.478,338.816 439.5,341C 446.55,341.633 453.05,342.133 459,342.5C 461.261,342.561 463.261,341.894 465,340.5C 467.667,340.5 470.333,340.5 473,340.5C 475.147,341.113 477.314,341.779 479.5,342.5C 476.914,343.48 474.247,343.813 471.5,343.5C 471.5,344.5 471.5,345.5 471.5,346.5C 469.901,346.232 468.568,346.566 467.5,347.5C 465.901,347.232 464.568,347.566 463.5,348.5C 461.167,348.5 458.833,348.5 456.5,348.5C 453.659,347.331 450.659,346.331 447.5,345.5C 429.308,340.743 413.975,331.41 401.5,317.5 Z"/></g>
<g><path style="opacity:0.412" fill="#e2f0bd" d="M 497.5,330.5 C 496.134,337.73 492.134,343.23 485.5,347C 478.368,349.239 471.035,350.073 463.5,349.5C 463.5,349.167 463.5,348.833 463.5,348.5C 464.568,347.566 465.901,347.232 467.5,347.5C 481.501,348.509 491.501,342.842 497.5,330.5 Z"/></g>
<g><path style="opacity:0.853" fill="#a3c05a" d="M 75.5,346.5 C 75.5,346.167 75.5,345.833 75.5,345.5C 80.2973,345.121 84.964,345.621 89.5,347C 206.166,347.5 322.833,347.667 439.5,347.5C 442.698,348.036 445.365,347.369 447.5,345.5C 450.659,346.331 453.659,347.331 456.5,348.5C 333.833,348.667 211.166,348.5 88.5,348C 84.2695,346.71 79.9362,346.21 75.5,346.5 Z"/></g>
<g><path style="opacity:0.295" fill="#c4d695" d="M 75.5,346.5 C 79.9362,346.21 84.2695,346.71 88.5,348C 211.166,348.5 333.833,348.667 456.5,348.5C 458.833,348.5 461.167,348.5 463.5,348.5C 463.5,348.833 463.5,349.167 463.5,349.5C 349.993,349.826 236.66,350.159 123.5,350.5C 111.508,349.828 99.5081,349.328 87.5,349C 83.2639,348.665 79.2639,347.832 75.5,346.5 Z"/></g>
</svg>
